<?xml version="1.0" encoding="UTF-8"?>
<svg xmlns="http://www.w3.org/2000/svg" version="1.1" viewBox="0 0 595.28 207.29">
  <!-- Generator: Adobe Illustrator 28.7.1, SVG Export Plug-In . SVG Version: 1.2.0 Build 142)  -->
  <g>
    <g id="Layer_1">
      <g>
        <polygon points="493.46 161.51 455.38 161.51 455.38 43.88 470.63 43.88 470.63 146.26 493.46 146.26 493.46 161.51"/>
        <polygon points="248.74 43.85 248.74 97.2 214.12 97.2 214.12 43.85 198.87 43.85 198.87 161.54 214.12 161.54 214.12 112.45 248.74 112.45 248.74 161.54 263.99 161.54 263.99 43.85 248.74 43.85"/>
        <rect x="291.86" y="43.85" width="15.25" height="117.69"/>
        <path d="M388.19,164.66c-33.64,0-61.02-27.37-61.02-61.02s27.37-61.02,61.02-61.02c16.39,0,31.78,6.41,43.33,18.05l-10.83,10.74c-8.66-8.73-20.2-13.54-32.49-13.54-25.23,0-45.76,20.53-45.76,45.76s20.53,45.76,45.76,45.76c13.82,0,26.75-6.15,35.49-16.87l11.82,9.64c-11.65,14.29-28.9,22.49-47.32,22.49"/>
        <polygon points="102.79 43.94 77.73 120.02 52.62 43.94 36.77 43.94 76.86 161.54 78.64 161.54 118.81 43.94 102.79 43.94"/>
        <polygon points="148.65 146.26 148.65 130.09 172.68 130.09 172.68 128.3 166.61 114.84 148.65 114.84 148.65 59.11 170.87 59.11 170.87 43.85 133.4 43.85 133.4 161.51 176.25 161.51 176.25 146.26 148.65 146.26"/>
        <polygon points="515.66 43.85 515.66 161.51 558.51 161.51 558.51 146.26 530.91 146.26 530.91 130.09 554.94 130.09 554.94 128.3 548.87 114.84 530.91 114.84 530.91 59.11 553.13 59.11 553.13 43.85 515.66 43.85"/>
      </g>
    </g>
  </g>
</svg>